<svg width="200" height="200" viewBox="0 0 200 200" fill="none" xmlns="http://www.w3.org/2000/svg">
<path d="M155.767 146.927C167.89 132.721 174.767 114.7 174.767 95.7191C174.769 52.0566 139.379 16.667 95.7187 16.667C52.0583 16.667 16.6666 52.0587 16.6666 95.717C16.6666 139.377 52.0583 174.771 95.7166 174.771C103.54 174.778 111.32 173.623 118.804 171.344C120.38 170.853 121.698 169.758 122.47 168.298C123.241 166.839 123.404 165.133 122.922 163.554C122.441 161.975 121.354 160.651 119.9 159.87C118.445 159.089 116.74 158.916 115.158 159.388C108.856 161.306 102.304 162.278 95.7166 162.271C58.9625 162.269 29.1666 132.473 29.1666 95.717C29.1666 58.9628 58.9625 29.167 95.7166 29.167C132.473 29.167 162.271 58.9628 162.271 95.717C162.271 113.154 155.36 129.642 143.298 142.069C141.976 143.431 141.243 145.258 141.257 147.155C141.271 149.053 142.031 150.869 143.373 152.211L172.665 181.502C173.84 182.659 175.424 183.304 177.073 183.298C178.722 183.291 180.301 182.633 181.467 181.468C182.633 180.302 183.291 178.723 183.298 177.074C183.305 175.425 182.66 173.84 181.504 172.665L155.767 146.927Z" fill="currentColor"/>
</svg>
